<svg width="24" height="24" viewBox="0 0 24 24" fill="none" xmlns="http://www.w3.org/2000/svg">
<path fill-rule="evenodd" clip-rule="evenodd" d="M12 3.5C16.6944 3.5 20.5 7.30557 20.5 12C20.5 16.6944 16.6944 20.5 12 20.5C10.5679 20.5 9.21672 20.1446 8.03125 19.5176L4.8877 20.1035C4.61238 20.1546 4.32986 20.0662 4.13184 19.8682C3.93382 19.6701 3.84537 19.3876 3.89648 19.1123L4.48242 15.9678C3.85573 14.7825 3.5 13.4317 3.5 12C3.5 7.30558 7.30558 3.5 12 3.5ZM12.666 15.6348C12.3672 15.3656 11.9061 15.3899 11.6367 15.6885L11.6289 15.6973C11.3597 15.9962 11.3839 16.4563 11.6826 16.7256C11.9814 16.9947 12.4416 16.9714 12.7109 16.6729L12.7188 16.6641C12.9879 16.3652 12.9647 15.9041 12.666 15.6348ZM11.9756 7.38574C11.2952 7.38581 10.5862 7.60096 10.0352 8.06836C9.46822 8.5494 9.1104 9.26453 9.11035 10.1543C9.11043 10.5566 9.43653 10.8828 9.83887 10.8828C10.2411 10.8827 10.5673 10.5565 10.5674 10.1543C10.5674 9.68461 10.7434 9.37958 10.9775 9.18066C11.2278 8.96836 11.5878 8.84284 11.9756 8.84277C12.3635 8.84282 12.7234 8.96833 12.9736 9.18066C13.2079 9.37958 13.3847 9.6845 13.3848 10.1543C13.3847 10.5028 13.3016 10.7009 13.2031 10.8486C13.0834 11.0282 12.9236 11.1678 12.6543 11.4102C12.4064 11.6333 12.0847 11.9308 11.8398 12.3633C11.5878 12.8086 11.4414 13.3487 11.4414 14.04C11.4415 14.4423 11.7677 14.7684 12.1699 14.7686C12.5722 14.7685 12.8983 14.4423 12.8984 14.04C12.8985 13.5659 12.9953 13.2792 13.1074 13.0811C13.2267 12.8704 13.3914 12.7069 13.6289 12.4932C13.8452 12.2985 14.1715 12.024 14.416 11.6572C14.6815 11.2588 14.8418 10.7766 14.8418 10.1543C14.8417 9.26461 14.4838 8.5494 13.917 8.06836C13.3659 7.60077 12.6562 7.38579 11.9756 7.38574Z" fill="#9E9E9E"/>
</svg>
