<svg width="24" height="24" viewBox="0 0 24 24" fill="none" xmlns="http://www.w3.org/2000/svg">
<path d="M12 1C18.0751 1 23 5.92487 23 12C23 18.0751 18.0751 23 12 23C5.92487 23 1 18.0751 1 12C1 5.92487 5.92487 1 12 1ZM16.3154 7.68652C15.8663 7.23744 15.1376 7.23743 14.6885 7.68652L12.001 10.374L9.31348 7.68652C8.86438 7.23743 8.13563 7.23744 7.68652 7.68652C7.2376 8.13563 7.23749 8.86442 7.68652 9.31348L10.374 12.001L7.68652 14.6895C7.23792 15.1385 7.23775 15.8665 7.68652 16.3154C8.13556 16.7644 8.86437 16.7643 9.31348 16.3154L12.001 13.6279L14.6885 16.3154C15.1375 16.7644 15.8663 16.7643 16.3154 16.3154C16.7643 15.8664 16.7642 15.1385 16.3154 14.6895L13.627 12.001L16.3154 9.31348C16.7645 8.86437 16.7645 8.13562 16.3154 7.68652Z" fill="#0F0F0F"/>
</svg>
