<svg width="24" height="24" viewBox="0 0 24 24" fill="none" xmlns="http://www.w3.org/2000/svg">
<path d="M14.2412 2.40039L14.4219 2.40527C15.3213 2.46062 16.1536 2.92625 16.6641 3.67969L17.6152 5.08398H19.0996C21.3087 5.08398 23.0996 6.87485 23.0996 9.08398V17.5996C23.0996 19.8087 21.3087 21.5996 19.0996 21.5996H4.90039C2.69125 21.5996 0.900391 19.8087 0.900391 17.5996V9.08398C0.900391 6.87485 2.69125 5.08398 4.90039 5.08398H6.38477L7.33594 3.67969C7.88042 2.8761 8.79105 2.40055 9.75879 2.40039H14.2412ZM12 9C9.79096 9 8.00023 10.7908 8 13C8.00026 15.2092 9.79098 17 12 17C14.209 17 15.9997 15.2092 16 13C15.9998 10.7908 14.209 9.00002 12 9Z" fill="#121212"/>
</svg>
