<svg width="24" height="24" viewBox="0 0 24 24" fill="none" xmlns="http://www.w3.org/2000/svg">
<path d="M22.5 18C22.5 20.7614 20.2614 23 17.5 23H6.5C3.73858 23 1.5 20.7614 1.5 18V9.5H22.5V18ZM12.7891 17.2129C12.378 16.7993 11.622 16.7993 11.2109 17.2129C11.0111 17.4253 10.8887 17.7163 10.8887 18.0068C10.8888 18.2973 11.0111 18.5885 11.2109 18.8008C11.422 19.0019 11.7112 19.125 12 19.125C12.2888 19.125 12.578 19.0019 12.7891 18.8008C12.9889 18.5885 13.1112 18.2974 13.1113 18.0068C13.1113 17.7163 12.9889 17.4253 12.7891 17.2129ZM16.6777 17.2129C16.2666 16.7994 15.5107 16.7993 15.0996 17.2129C14.8999 17.4253 14.7784 17.7164 14.7783 18.0068C14.7784 18.2973 14.8998 18.5885 15.0996 18.8008C15.3106 19.0019 15.6 19.1249 15.8887 19.125C16.1774 19.125 16.4667 19.0019 16.6777 18.8008C16.8776 18.5885 16.9999 18.2974 17 18.0068C16.9999 17.7163 16.8776 17.4253 16.6777 17.2129ZM8.33301 16.9219C8.1109 16.8775 7.88838 16.8995 7.68848 16.9883C7.54433 17.0438 7.43321 17.1218 7.32227 17.2217C7.12247 17.4327 7.00005 17.722 7 18.0107C7.00021 18.2992 7.1226 18.5879 7.32227 18.7988C7.43318 18.8986 7.54437 18.9767 7.68848 19.0322C7.82177 19.0877 7.96693 19.1211 8.11133 19.1211C8.18887 19.1211 8.25548 19.1107 8.33301 19.0996C8.39962 19.0885 8.46659 19.0655 8.5332 19.0322C8.5998 19.01 8.66681 18.977 8.7334 18.9326C8.78886 18.8993 8.84493 18.8432 8.90039 18.7988C9.09994 18.5879 9.22244 18.2992 9.22266 18.0107C9.2226 17.7221 9.10007 17.4327 8.90039 17.2217C8.84492 17.1773 8.78887 17.1323 8.7334 17.0879C8.66682 17.0435 8.59978 17.0105 8.5332 16.9883C8.46659 16.955 8.39962 16.933 8.33301 16.9219ZM8.5332 13.0879C8.12223 12.9102 7.63333 13.0102 7.32227 13.3213C7.12252 13.5323 7.00017 13.8216 7 14.1104C7.0001 14.3992 7.1224 14.6893 7.32227 14.9004C7.53335 15.1003 7.8226 15.2227 8.11133 15.2227C8.40006 15.2226 8.68935 15.1003 8.90039 14.9004C9.10023 14.6893 9.22255 14.3992 9.22266 14.1104C9.22248 13.8216 9.10009 13.5323 8.90039 13.3213C8.80044 13.2213 8.67755 13.1435 8.5332 13.0879ZM12.7891 13.3213C12.4781 13.0103 11.9891 12.9103 11.5781 13.0879C11.4338 13.1434 11.3109 13.2213 11.2109 13.3213C11.0111 13.5325 10.8887 13.8224 10.8887 14.1113C10.8889 14.4001 11.0112 14.6894 11.2109 14.9004C11.422 15.1004 11.7112 15.2227 12 15.2227C12.0778 15.2227 12.1449 15.2113 12.2227 15.2002C12.2558 15.1946 12.2891 15.1868 12.3223 15.1758L12.5215 15.0918C12.555 15.0749 12.5887 15.0555 12.6221 15.0332C12.6775 14.9888 12.7336 14.9448 12.7891 14.9004C12.9888 14.6894 13.1111 14.4001 13.1113 14.1113C13.1113 13.8224 12.9889 13.5325 12.7891 13.3213ZM16.1113 13.0225C15.8892 12.978 15.6667 13 15.4668 13.0889C15.3225 13.1444 15.2107 13.2223 15.0996 13.3223C14.8999 13.5333 14.7774 13.8227 14.7773 14.1113C14.7775 14.4 14.8998 14.6894 15.0996 14.9004C15.3106 15.1002 15.6 15.2216 15.8887 15.2217C15.9553 15.2217 16.0336 15.2113 16.1113 15.2002C16.1447 15.1946 16.1784 15.1861 16.2119 15.1748L16.4111 15.0908C16.4442 15.0743 16.4776 15.0553 16.5107 15.0332C16.5661 14.9889 16.6224 14.9447 16.6777 14.9004C16.8775 14.6894 16.9998 14.4 17 14.1113C16.9999 13.8226 16.8776 13.5333 16.6777 13.3223C16.6223 13.2779 16.5662 13.2329 16.5107 13.1885C16.4444 13.1443 16.3779 13.111 16.3115 13.0889C16.245 13.0556 16.1779 13.0336 16.1113 13.0225ZM16 0.900391C16.6075 0.900391 17.0996 1.39249 17.0996 2V2.5H17.5C20.2614 2.5 22.5 4.73858 22.5 7.5V8H1.5V7.5C1.5 4.73858 3.73858 2.5 6.5 2.5H6.90039V2C6.90039 1.39249 7.39249 0.900391 8 0.900391C8.60751 0.900391 9.09961 1.39249 9.09961 2V2.5H14.9004V2C14.9004 1.39249 15.3925 0.900391 16 0.900391Z" fill="#121212"/>
</svg>
