<svg width="24" height="24" viewBox="0 0 24 24" fill="none" xmlns="http://www.w3.org/2000/svg">
<path d="M12.2764 4.6201C12.9184 4.6792 13.5454 4.94507 14.0498 5.41698L21.9512 12.8095C23.8141 14.5524 22.7742 17.5893 20.3946 17.9618C20.236 17.9867 20.0714 17.9999 19.9014 17.9999H4.09864L3.84766 17.9902C3.76981 17.9841 3.6934 17.9743 3.61817 17.9628C3.58094 17.9571 3.54438 17.9493 3.50782 17.9423C3.46646 17.9344 3.42527 17.9274 3.38477 17.9179C3.3482 17.9093 3.31223 17.8994 3.27637 17.8896C3.24231 17.8802 3.20821 17.8717 3.17481 17.8612C3.13003 17.8472 3.08655 17.8304 3.04297 17.8144C3.01785 17.8052 2.9925 17.7969 2.96778 17.787C2.92707 17.7708 2.88725 17.7532 2.84766 17.7353C2.82009 17.7228 2.79264 17.7104 2.76563 17.6972C2.7319 17.6807 2.69887 17.6632 2.66602 17.6454C2.63371 17.628 2.60176 17.6103 2.57031 17.5917C2.53925 17.5734 2.50873 17.5545 2.47852 17.5351C2.4488 17.516 2.41951 17.4965 2.39063 17.4765C2.36317 17.4574 2.33626 17.4378 2.30957 17.4179C2.27976 17.3956 2.25053 17.3728 2.22168 17.3495C2.19231 17.3258 2.16312 17.302 2.13477 17.2773C2.11391 17.259 2.09354 17.2404 2.07324 17.2216C2.04208 17.1928 2.01127 17.1638 1.98145 17.1337C1.95985 17.112 1.93886 17.0897 1.91797 17.0673C1.89341 17.041 1.86927 17.0144 1.8457 16.9872C1.81656 16.9537 1.78833 16.9195 1.76074 16.8847C1.7475 16.868 1.73359 16.8518 1.7207 16.8349C1.69018 16.7947 1.66127 16.7534 1.63281 16.7118C1.62062 16.694 1.60849 16.6762 1.59668 16.6581C1.5317 16.5587 1.47296 16.4556 1.41992 16.3495C1.36323 16.2361 1.3139 16.1194 1.27148 15.9999C1.2589 15.9645 1.24567 15.9293 1.23438 15.8935C1.22636 15.868 1.22025 15.842 1.21289 15.8163C1.20261 15.7805 1.19062 15.7451 1.18164 15.7089C1.17387 15.6776 1.16792 15.6458 1.16113 15.6142C1.15269 15.5749 1.14459 15.5356 1.1377 15.496C1.13025 15.4533 1.12477 15.4102 1.11914 15.3671C1.11607 15.3437 1.1119 15.3203 1.10938 15.2968C1.10556 15.2611 1.10314 15.2252 1.10059 15.1894C1.09829 15.1572 1.09599 15.125 1.09473 15.0927C1.09422 15.0797 1.09311 15.0667 1.09277 15.0536V14.9179C1.09308 14.9023 1.09418 14.8867 1.09473 14.871C1.0957 14.8434 1.09688 14.8157 1.09863 14.788C1.10136 14.745 1.10573 14.7021 1.11035 14.6591C1.11376 14.6275 1.11763 14.5959 1.12207 14.5644C1.12762 14.525 1.13344 14.4855 1.14063 14.4462C1.1451 14.4218 1.15016 14.3974 1.15527 14.373C1.16506 14.3263 1.17631 14.2798 1.18848 14.2333C1.19531 14.2072 1.20237 14.1812 1.20996 14.1552C1.22134 14.1163 1.23398 14.0777 1.24707 14.039C1.25709 14.0094 1.26631 13.9795 1.27734 13.9501C1.29227 13.9104 1.30936 13.8713 1.32617 13.832C1.33868 13.8027 1.3507 13.7731 1.36426 13.7441C1.38649 13.6964 1.41046 13.6494 1.43555 13.6025C1.44337 13.5879 1.45089 13.5731 1.45898 13.5585C1.48777 13.5069 1.51842 13.4558 1.55078 13.4052C1.56068 13.3897 1.56984 13.3737 1.58008 13.3583C1.66537 13.2303 1.76288 13.1065 1.87207 12.9872L2.04883 12.8095L9.95021 5.41698C10.3827 5.01235 10.9052 4.75932 11.4502 4.65819C11.5408 4.64137 11.6321 4.62853 11.7236 4.6201C11.9074 4.60319 12.0926 4.60319 12.2764 4.6201Z" fill="#0F0F0F"/>
</svg>
