<svg width="24" height="24" viewBox="0 0 24 24" fill="none" xmlns="http://www.w3.org/2000/svg">
<path d="M10.2354 1.28375C11.2873 0.518697 12.7127 0.518697 13.7646 1.28375L21.7646 7.10211C22.5406 7.66666 23 8.56825 23 9.52789V20.0005C23 20.2303 22.9718 20.4536 22.9229 20.6685C22.9132 20.711 22.9011 20.7527 22.8896 20.7945C22.8765 20.8424 22.864 20.8902 22.8486 20.9371C22.8322 20.9871 22.8129 21.0357 22.7939 21.0845C22.7793 21.1222 22.7651 21.1599 22.749 21.1968C22.7266 21.2484 22.701 21.2982 22.6758 21.3482C22.6585 21.3825 22.6426 21.4173 22.624 21.4507C22.5942 21.5046 22.5613 21.5562 22.5283 21.608C22.5112 21.6349 22.4955 21.6627 22.4775 21.689C22.4439 21.7383 22.4076 21.7855 22.3711 21.8326C22.3492 21.8609 22.3285 21.8901 22.3057 21.9175C22.1253 22.1343 21.9155 22.3252 21.6816 22.4839C21.6683 22.493 21.6541 22.5005 21.6406 22.5093C21.5782 22.5502 21.5147 22.5893 21.4492 22.6255C21.4204 22.6415 21.3907 22.6555 21.3613 22.6705C21.3049 22.6993 21.2479 22.7272 21.1895 22.7525C21.1624 22.7642 21.1349 22.7748 21.1074 22.7857C21.0473 22.8097 20.9868 22.833 20.9248 22.8531C20.8929 22.8634 20.8605 22.8721 20.8281 22.8814C20.7657 22.8993 20.7027 22.9154 20.6387 22.9293C20.5844 22.941 20.5299 22.9527 20.4746 22.9615C20.4477 22.9658 20.4207 22.9696 20.3936 22.9732C20.3147 22.9836 20.235 22.9926 20.1543 22.9966L20 23.0005H4L3.8457 22.9966C3.76467 22.9925 3.68468 22.9836 3.60547 22.9732C3.57832 22.9696 3.55133 22.9658 3.52441 22.9615C3.46909 22.9527 3.41462 22.9411 3.36035 22.9293C3.29634 22.9153 3.23331 22.8993 3.1709 22.8814C3.13854 22.8721 3.10612 22.8634 3.07422 22.8531C3.01223 22.833 2.95175 22.8097 2.8916 22.7857C2.86414 22.7748 2.83663 22.7642 2.80957 22.7525C2.75111 22.7272 2.69415 22.6993 2.6377 22.6705C2.60835 22.6555 2.57858 22.6415 2.5498 22.6255C2.48433 22.5893 2.42076 22.5502 2.3584 22.5093C2.34495 22.5005 2.33068 22.493 2.31738 22.4839C2.08359 22.3252 1.87363 22.1343 1.69336 21.9175C1.6705 21.8901 1.64982 21.8609 1.62793 21.8326C1.59149 21.7855 1.55512 21.7383 1.52148 21.689C1.50351 21.6627 1.48785 21.6349 1.4707 21.608C1.43777 21.5562 1.40479 21.5046 1.375 21.4507C1.35646 21.4173 1.34052 21.3825 1.32324 21.3482C1.29802 21.2982 1.27246 21.2484 1.25 21.1968C1.23391 21.1599 1.21971 21.1222 1.20508 21.0845C1.18618 21.0358 1.16776 20.987 1.15137 20.9371C1.13592 20.8901 1.12253 20.8425 1.10938 20.7945C1.09792 20.7527 1.08585 20.711 1.07617 20.6685C1.02724 20.4536 1.00004 20.2302 1 20.0005V9.52789C1 9.43948 1.00501 9.35143 1.0127 9.26422C1.02023 9.17887 1.03024 9.0941 1.04492 9.01031C1.05008 8.98085 1.05647 8.95166 1.0625 8.92242C1.06734 8.89896 1.07175 8.87542 1.07715 8.85211C1.08381 8.82332 1.09114 8.79471 1.09863 8.76617C1.10645 8.73644 1.11434 8.70675 1.12305 8.67731C1.13021 8.6531 1.13775 8.62903 1.14551 8.60504C1.15537 8.57456 1.16594 8.54434 1.17676 8.51422C1.18453 8.49259 1.19291 8.4712 1.20117 8.44977C1.21327 8.4184 1.22515 8.38695 1.23828 8.35602C1.24899 8.33079 1.26009 8.30574 1.27148 8.28082C1.27687 8.26904 1.28254 8.25738 1.28809 8.24567L1.32617 8.16656C1.33456 8.15008 1.34384 8.13406 1.35254 8.11774C1.36089 8.10205 1.3693 8.0864 1.37793 8.07086C1.39401 8.04192 1.4107 8.01333 1.42773 7.98492C1.4716 7.91181 1.51832 7.84032 1.56836 7.77106C1.61702 7.7037 1.66835 7.63809 1.72266 7.57477C1.74289 7.55117 1.76415 7.52843 1.78516 7.50543C1.92012 7.35765 2.07039 7.22212 2.23535 7.10211L10.2354 1.28375ZM12 13.9957C11.8621 13.9957 11.7309 14.0242 11.6113 14.0748C11.5813 14.0875 11.5519 14.1013 11.5234 14.1168C11.2971 14.2399 11.123 14.4477 11.0449 14.6978C11.0156 14.7918 11.0001 14.8921 11 14.9957V17.9976C11.0001 18.5498 11.4478 18.9976 12 18.9976C12.5522 18.9976 12.9999 18.5498 13 17.9976V14.9957C12.9999 14.8921 12.9844 14.7918 12.9551 14.6978C12.877 14.4477 12.7029 14.2399 12.4766 14.1168C12.4481 14.1013 12.4187 14.0875 12.3887 14.0748C12.2691 14.0242 12.1379 13.9957 12 13.9957Z" fill="#121212"/>
</svg>
