<svg width="24" height="24" viewBox="0 0 24 24" fill="none" xmlns="http://www.w3.org/2000/svg">
<path d="M12 1C18.072 1 23 5.928 23 12C23 18.072 18.072 23 12 23C5.928 23 1 18.072 1 12C1 5.928 5.928 1 12 1ZM12.001 14C9.16324 14.0001 6.53066 15.4627 5.47559 17.75C7.07032 19.5578 9.40221 20.7002 12 20.7002C14.5981 20.7002 16.9297 19.5571 18.5244 17.749C17.4692 15.4624 14.8381 14.0003 12.001 14ZM12.001 4.34863C9.79918 4.3489 8.01394 6.13512 8.01367 8.33691C8.01394 10.5387 9.79918 12.3249 12.001 12.3252C14.2025 12.3247 15.989 10.5385 15.9893 8.33691C15.989 6.13528 14.2025 4.34916 12.001 4.34863Z" fill="#121212"/>
</svg>
