<svg width="24" height="24" viewBox="0 0 24 24" fill="none" xmlns="http://www.w3.org/2000/svg">
<path d="M18.2568 1.00684C20.8989 1.14053 23 3.32472 23 6V18L22.999 18.0195L23 18.0205V18.9004C22.9999 21.1647 21.1637 23 18.8994 23H5.09961C2.83549 22.9998 1.0001 21.1645 1 18.9004V6C1 3.23858 3.23858 1 6 1H18L18.2568 1.00684ZM6 3C4.34315 3 3 4.34315 3 6V10.709L4.20117 10.0156V10.0166C4.72938 9.69483 5.45945 9.44651 6.2168 9.41113C6.99947 9.37473 7.93944 9.56424 8.66992 10.2949C9.11604 10.7412 10.1886 11.8136 11.1494 12.7744C11.6297 13.2546 12.0827 13.7067 12.415 14.0391C12.5811 14.2051 12.7169 14.3419 12.8115 14.4365C12.8586 14.4836 12.8958 14.5208 12.9209 14.5459C12.9333 14.5583 12.9437 14.5678 12.9502 14.5742C12.9532 14.5773 12.9554 14.5804 12.957 14.582L12.959 14.584H12.96C13.269 14.893 13.7555 14.9355 14.1133 14.6846L14.4121 14.4746C15.9757 13.3759 18.0911 13.5031 19.5117 14.7812L19.5186 14.7871L19.5244 14.793L21 16.1631V6C21 4.34315 19.6569 3 18 3H6ZM16 4.90039C17.7121 4.90039 19.0996 6.28792 19.0996 8C19.0996 9.71208 17.7121 11.0996 16 11.0996C14.2879 11.0996 12.9004 9.71208 12.9004 8C12.9004 6.28792 14.2879 4.90039 16 4.90039Z" fill="#121212"/>
</svg>
