<svg width="24" height="24" viewBox="0 0 24 24" fill="none" xmlns="http://www.w3.org/2000/svg">
<path d="M10.6501 21.7998L10.6501 13.3506L2.19995 13.3506C1.45437 13.3506 0.850342 12.7456 0.850342 12C0.850448 11.2545 1.45443 10.6504 2.19995 10.6504L10.6501 10.6504L10.6501 2.2002C10.6501 1.45474 11.2544 0.850798 11.9998 0.850586C12.7453 0.850586 13.3503 1.45461 13.3503 2.2002L13.3503 10.6504L21.7996 10.6504C22.5451 10.6504 23.15 11.2545 23.1501 12C23.1501 12.7456 22.5451 13.3506 21.7996 13.3506L13.3503 13.3506L13.3503 21.7998C13.3503 22.5454 12.7453 23.1504 11.9998 23.1504C11.2544 23.1502 10.6501 22.5453 10.6501 21.7998Z" fill="#121212"/>
</svg>
