<svg width="24" height="24" viewBox="0 0 24 24" fill="none" xmlns="http://www.w3.org/2000/svg">
<path d="M5.09801 22.5906L4.56187 22.7703L3.76012 23.0369C2.96592 23.3015 2.08936 23.0957 1.49742 22.5037C0.905554 21.9117 0.699574 21.0352 0.964217 20.241L1.23082 19.4393L1.40953 18.9022L5.09801 22.5906ZM13.4672 3.34558C13.5298 3.74501 13.6353 4.15412 13.7816 4.56042C14.1362 5.54508 14.7375 6.56664 15.5804 7.50181L15.9564 7.89732C17.4531 9.39879 19.1756 10.2695 20.6898 10.4979L12.2132 18.9754C11.6558 19.5329 11.3107 19.8809 10.9242 20.1824C10.4831 20.5264 10.0052 20.8217 9.50035 21.0623C9.06464 21.2699 8.60614 21.4213 7.87828 21.6639L7.87535 21.6658L6.58238 22.0965L1.90367 17.4178L2.32457 16.158C2.57407 15.4095 2.72785 14.9436 2.93883 14.5008C3.17948 13.9959 3.47473 13.518 3.81871 13.077C4.12023 12.6905 4.46825 12.3454 5.02574 11.7879L13.4672 3.34558ZM14.8607 1.98914C16.8569 0.362119 19.8011 0.479509 21.6615 2.33972C23.5102 4.18847 23.6357 7.106 22.0404 9.10142C20.8836 9.34242 18.8377 8.80504 16.9466 6.90709L16.9447 6.90514C16.0419 6.00626 15.4307 5.00719 15.099 4.08581C14.794 3.23856 14.7435 2.50722 14.8607 1.98914Z" fill="#121212"/>
</svg>
