<svg width="24" height="24" viewBox="0 0 24 24" fill="none" xmlns="http://www.w3.org/2000/svg">
<path d="M12 1C18.0751 1 23 5.92487 23 12C23 18.0751 18.0751 23 12 23C5.92487 23 1 18.0751 1 12C1 5.92487 5.92487 1 12 1ZM12 15.5C11.3373 15.5 10.7998 16.0375 10.7998 16.7002C10.7999 17.3628 11.3373 17.9004 12 17.9004C12.6627 17.9004 13.2001 17.3628 13.2002 16.7002C13.2002 16.0375 12.6627 15.5 12 15.5ZM12 6.00098C10.0973 6.00117 8.50023 7.4939 8.5 9.42188C8.5 10.0293 8.99226 10.5223 9.59961 10.5225C10.2071 10.5225 10.6992 10.0294 10.6992 9.42188C10.6995 8.77705 11.2431 8.20038 12 8.2002C12.7569 8.20039 13.2996 8.77706 13.2998 9.42188C13.2998 9.62093 13.2442 9.74639 13.1562 9.86133C13.0481 10.0024 12.8757 10.145 12.6074 10.3223L12.6035 10.3262C11.9542 10.7599 10.8994 11.5506 10.8994 13.1006C10.8994 13.708 11.3927 14.2 12 14.2002C12.6073 14.2 13.0996 13.708 13.0996 13.1006C13.0996 12.8873 13.1588 12.7562 13.25 12.6377C13.3633 12.4906 13.5414 12.3432 13.8242 12.1543C14.4709 11.7266 15.5 10.9368 15.5 9.42188C15.4998 7.4939 13.9027 6.00118 12 6.00098Z" fill="#121212"/>
</svg>
