<svg width="24" height="24" viewBox="0 0 24 24" fill="none" xmlns="http://www.w3.org/2000/svg">
<path d="M10.7002 0.900391C16.1125 0.900523 20.5 5.28789 20.5 10.7002C20.5 12.9376 19.7474 14.9979 18.4853 16.6475L22.8691 21.0303C23.3768 21.538 23.3768 22.3615 22.8691 22.8691C22.3615 23.3768 21.538 23.3768 21.0303 22.8691L16.6475 18.4853C14.9979 19.7474 12.9376 20.4999 10.7002 20.5C5.28787 20.5 0.900496 16.1125 0.900391 10.7002C0.900391 5.2878 5.2878 0.900391 10.7002 0.900391ZM10.7002 3.5C6.72374 3.5 3.5 6.72374 3.5 10.7002C3.50011 14.6766 6.72381 17.9004 10.7002 17.9004C14.6765 17.9003 17.9003 14.6765 17.9004 10.7002C17.9004 6.72383 14.6765 3.50013 10.7002 3.5Z" fill="#0F0F0F"/>
</svg>
