<svg width="24" height="24" viewBox="0 0 24 24" fill="none" xmlns="http://www.w3.org/2000/svg">
<path d="M13.0928 1C13.9526 1 14.7162 1.54994 14.9892 2.36523L15.3564 3.45898C15.4752 3.81367 15.6807 4.13347 15.9551 4.3877C16.5201 4.91121 17.3154 5.10589 18.0586 4.90332L19.2109 4.58887C19.9873 4.37723 20.8087 4.72181 21.2021 5.42383L22.2637 7.31836C22.7218 8.13577 22.5317 9.16426 21.8115 9.76367L20.6592 10.7227C20.2798 11.0385 20.0605 11.5064 20.0605 12C20.0605 12.4936 20.2798 12.9615 20.6592 13.2773L21.8115 14.2363C22.5317 14.8357 22.7218 15.8642 22.2637 16.6816L21.2021 18.5762C20.8087 19.2782 19.9873 19.6228 19.2109 19.4111L18.0586 19.0967C17.3154 18.8941 16.5201 19.0888 15.9551 19.6123C15.6807 19.8665 15.4752 20.1863 15.3564 20.541L14.9892 21.6348C14.7162 22.4501 13.9526 23 13.0928 23H10.9043C10.0445 23 9.28086 22.4501 9.0078 21.6348L8.64061 20.54C8.52191 20.1858 8.31675 19.8665 8.04296 19.6123C7.47893 19.0887 6.68451 18.8926 5.94139 19.0928L4.76659 19.4092C3.9781 19.6216 3.14588 19.268 2.75194 18.5527L1.72753 16.6924C1.27406 15.8688 1.47304 14.8382 2.20018 14.2422L3.3828 13.2734C3.76425 12.9608 3.98534 12.4932 3.98534 12C3.98534 11.5068 3.76425 11.0392 3.3828 10.7266L2.20018 9.75781C1.47304 9.16181 1.27406 8.13122 1.72753 7.30762L2.75194 5.44727C3.14588 4.73201 3.9781 4.37845 4.76659 4.59082L5.94139 4.90723C6.68451 5.10738 7.47893 4.91129 8.04296 4.3877C8.31675 4.13346 8.52191 3.81424 8.64061 3.45996L9.0078 2.36523C9.28086 1.54994 10.0445 1 10.9043 1H13.0928ZM11.999 7.76465C9.6484 7.76488 7.74315 9.66122 7.74315 12C7.74334 14.3386 9.64852 16.2341 11.999 16.2344C14.3497 16.2344 16.2557 14.3388 16.2558 12C16.2558 9.66107 14.3498 7.76465 11.999 7.76465Z" fill="#121212"/>
</svg>
