<svg width="24" height="24" viewBox="0 0 24 24" fill="none" xmlns="http://www.w3.org/2000/svg">
<path d="M22 13.75C22.6902 13.7501 23.25 14.3097 23.25 15V18.4229C23.2499 21.0887 21.0887 23.2498 18.4229 23.25H5.57715C2.91122 23.2499 0.750078 21.0888 0.75 18.4229V15C0.75 14.3096 1.30964 13.75 2 13.75C2.69024 13.7501 3.25 14.3097 3.25 15V18.4229C3.25008 19.7081 4.29193 20.7499 5.57715 20.75H18.4229C19.708 20.7498 20.7499 19.708 20.75 18.4229V15C20.75 14.3096 21.3096 13.75 22 13.75ZM11.999 0.949219C12.3304 0.94935 12.6485 1.0821 12.8828 1.31641L17.4209 5.85547C17.9089 6.3436 17.9089 7.13493 17.4209 7.62305C16.9327 8.11043 16.1412 8.11082 15.6533 7.62305L13.248 5.21875V16.542C13.2478 17.2319 12.689 17.7917 11.999 17.792C11.309 17.7918 10.7484 17.2319 10.748 16.542V5.21777L8.34375 7.62305C7.85564 8.11052 7.06415 8.11073 6.57617 7.62305C6.08822 7.13509 6.08861 6.34367 6.57617 5.85547L11.1152 1.31641L11.2061 1.2334C11.4284 1.05113 11.709 0.949299 11.999 0.949219Z" fill="#121212"/>
</svg>
