<svg width="20" height="20" viewBox="0 0 20 20" fill="none" xmlns="http://www.w3.org/2000/svg">
<path d="M12.9883 5.27966C13.1459 5.27966 13.4146 5.30473 13.7942 5.35488C14.1739 5.40503 14.5894 5.5483 15.0407 5.78471C15.4992 6.01395 15.9147 6.39722 16.2873 6.9345C16.2658 6.956 16.1619 7.0348 15.9756 7.17091C15.7894 7.29986 15.5816 7.49328 15.3524 7.75118C15.1231 8.00192 14.9225 8.32429 14.7506 8.7183C14.5787 9.10515 14.4927 9.56721 14.4927 10.1045C14.4927 10.7206 14.6002 11.2436 14.8151 11.6734C15.0372 12.1032 15.2915 12.4507 15.578 12.7157C15.8718 12.9736 16.1297 13.1635 16.3517 13.2852C16.581 13.407 16.7028 13.4715 16.7171 13.4787C16.7099 13.5073 16.6168 13.7616 16.4377 14.2416C16.2658 14.7216 15.9792 15.2553 15.578 15.8427C15.227 16.3514 14.8473 16.8206 14.439 17.2504C14.0378 17.6803 13.5543 17.8952 12.9883 17.8952C12.6086 17.8952 12.297 17.8414 12.0534 17.734C11.8099 17.6194 11.5591 17.5083 11.3012 17.4009C11.0433 17.2863 10.6959 17.2289 10.2589 17.2289C9.83622 17.2289 9.48161 17.2863 9.19506 17.4009C8.91567 17.5155 8.64702 17.6301 8.38912 17.7447C8.13839 17.8594 7.84109 17.9167 7.49723 17.9167C6.97427 17.9167 6.51578 17.7089 6.12177 17.2934C5.72776 16.8779 5.323 16.38 4.9075 15.7998C4.42752 15.112 4.0156 14.2739 3.67174 13.2852C3.33504 12.2895 3.16669 11.2865 3.16669 10.2764C3.16669 9.1947 3.37086 8.28847 3.7792 7.55776C4.18753 6.81988 4.71049 6.26469 5.34808 5.89217C5.99282 5.51248 6.65906 5.32264 7.34679 5.32264C7.71214 5.32264 8.05601 5.38353 8.37838 5.50532C8.70075 5.61994 9.00163 5.73814 9.28102 5.85993C9.56758 5.98171 9.82547 6.04261 10.0547 6.04261C10.2768 6.04261 10.5347 5.97813 10.8284 5.84918C11.1221 5.72023 11.4517 5.59487 11.817 5.47308C12.1824 5.34413 12.5728 5.27966 12.9883 5.27966ZM12.3973 3.91495C12.1179 4.25165 11.7669 4.53462 11.3442 4.76386C10.9215 4.98594 10.5204 5.09698 10.1407 5.09698C10.0619 5.09698 9.98666 5.08982 9.91502 5.07549C9.90786 5.054 9.90069 5.0146 9.89353 4.95729C9.88637 4.89998 9.88278 4.83908 9.88278 4.77461C9.88278 4.34478 9.97591 3.92928 10.1622 3.5281C10.3484 3.11976 10.5598 2.78306 10.7962 2.518C11.0971 2.15981 11.4767 1.86251 11.9352 1.6261C12.3937 1.38969 12.8307 1.26433 13.2462 1.25C13.2677 1.34313 13.2784 1.45417 13.2784 1.58312C13.2784 2.01295 13.1961 2.43203 13.0313 2.84037C12.8665 3.24155 12.6552 3.59974 12.3973 3.91495Z" fill="black"/>
</svg>
