<svg width="20" height="20" viewBox="0 0 20 20" fill="none" xmlns="http://www.w3.org/2000/svg">
<path fill-rule="evenodd" clip-rule="evenodd" d="M18.8 10.2088C18.8 9.55896 18.7419 8.93359 18.6329 8.33368H10V11.8791H14.9337C14.7208 13.025 14.0751 13.9967 13.1044 14.6465V16.9463H16.0663C17.7998 15.3503 18.8 13.0005 18.8 10.2088Z" fill="#3D82F0"/>
<path fill-rule="evenodd" clip-rule="evenodd" d="M10.0003 19.1671C12.4753 19.1671 14.55 18.3462 16.0666 16.9467L13.1047 14.6459C12.2838 15.1959 11.2337 15.5208 10.0003 15.5208C7.61287 15.5208 5.59214 13.9085 4.87103 11.7421H1.80835V14.1173C3.31677 17.1127 6.41714 19.1671 10.0003 19.1671Z" fill="#31A752"/>
<path fill-rule="evenodd" clip-rule="evenodd" d="M4.87065 11.7419C4.68732 11.1919 4.58343 10.6042 4.58343 10.0002C4.58343 9.39624 4.68732 8.80855 4.87065 8.25855V5.88336H1.80797C1.1877 7.12086 0.833252 8.52133 0.833252 10.0002C0.833252 11.4791 1.1877 12.8796 1.80797 14.1171L4.87065 11.7419Z" fill="#F9BA00"/>
<path fill-rule="evenodd" clip-rule="evenodd" d="M10.0003 4.47962C11.3457 4.47962 12.5547 4.94202 13.504 5.85054L16.1338 3.22174C14.5459 1.74183 12.4712 0.833313 10.0003 0.833313C6.41714 0.833313 3.31677 2.88767 1.80835 5.88416L4.87103 8.25833C5.59214 6.09193 7.61287 4.47962 10.0003 4.47962Z" fill="#E64234"/>
</svg>
