<svg width="20" height="20" viewBox="0 0 20 20" fill="none" xmlns="http://www.w3.org/2000/svg">
<path fill-rule="evenodd" clip-rule="evenodd" d="M9.99992 1.25C4.93992 1.25 0.833252 4.4958 0.833252 8.48777C0.833252 10.9781 2.41909 13.1513 4.83909 14.4757L3.82159 18.2718C3.80239 18.3473 3.80634 18.427 3.83291 18.5002C3.85948 18.5733 3.9074 18.6364 3.97024 18.6811C4.03308 18.7258 4.10784 18.7498 4.18449 18.75C4.26115 18.7502 4.33602 18.7265 4.39909 18.6822L8.85409 15.6696C9.22992 15.6696 9.61492 15.7349 9.99992 15.7349C15.0599 15.7349 19.1666 12.4891 19.1666 8.48777C19.1666 4.48648 15.0599 1.25 9.99992 1.25Z" fill="#0F0F0F"/>
</svg>
