<svg width="24" height="24" viewBox="0 0 24 24" fill="none" xmlns="http://www.w3.org/2000/svg">
<path fill-rule="evenodd" clip-rule="evenodd" d="M12.0004 9.0127C13.8967 9.0129 15.4349 10.5509 15.4349 12.4473C15.4346 14.3434 13.8965 15.8807 12.0004 15.8809C10.1042 15.8808 8.56715 14.3434 8.56678 12.4473C8.56678 10.5508 10.1039 9.0128 12.0004 9.0127ZM12.0004 10.8135C11.098 10.8136 10.3666 11.5449 10.3666 12.4473C10.367 13.3493 11.0983 14.0809 12.0004 14.0811C12.9024 14.0808 13.6338 13.3492 13.6342 12.4473C13.6342 11.545 12.9026 10.8137 12.0004 10.8135Z" fill="#F7F7F8"/>
<path fill-rule="evenodd" clip-rule="evenodd" d="M12.2924 3.10449C12.9707 3.12537 13.6321 3.21843 14.268 3.37695C15.003 3.56033 15.3647 4.19037 15.4828 4.6748C15.5852 5.09486 15.85 5.47042 16.2513 5.70215L16.391 5.77441C16.7213 5.92499 17.0804 5.95528 17.4183 5.87988C17.8745 5.77808 18.5375 5.81133 19.0219 6.28906L19.1166 6.39062L19.3842 6.71973C19.9906 7.50043 20.4765 8.38054 20.8129 9.33203C21.0984 10.1404 20.6532 10.848 20.2347 11.2031C19.8804 11.504 19.6587 11.9484 19.6586 12.4463L19.6683 12.6309C19.7159 13.0535 19.9254 13.4262 20.2357 13.6895C20.6543 14.0446 21.0984 14.7522 20.8129 15.5605C20.4285 16.6483 19.8486 17.6426 19.1166 18.502C18.6272 19.0762 17.9057 19.121 17.4193 19.0127C17.0815 18.9374 16.7218 18.9682 16.391 19.1191L16.2513 19.1914C15.8499 19.4232 15.5852 19.7983 15.4828 20.2178C15.3646 20.7021 15.0034 21.332 14.2689 21.5156C13.6331 21.6744 12.9713 21.7681 12.2924 21.7891L12.0004 21.7939C11.2177 21.7939 10.4562 21.6966 9.72889 21.5146C8.995 21.3308 8.63413 20.7012 8.516 20.2168C8.42644 19.85 8.21317 19.5176 7.89295 19.2852L7.74842 19.1914C7.38011 18.9788 6.96529 18.9259 6.57947 19.0117C6.09343 19.1198 5.37171 19.0749 4.88221 18.5C4.15103 17.6408 3.57258 16.6471 3.18885 15.5605C2.90353 14.7525 3.34768 14.0456 3.766 13.6904C4.0763 13.4269 4.28512 13.0528 4.3324 12.6299L4.34217 12.4463C4.34209 11.9485 4.1204 11.5032 3.766 11.2021C3.34771 10.847 2.90346 10.1401 3.18885 9.33203L3.34217 8.92871C3.72006 7.99859 4.24299 7.14364 4.88319 6.3916L4.97694 6.29004C5.46149 5.81132 6.12511 5.77792 6.58143 5.87988C6.96796 5.96617 7.38207 5.91416 7.7494 5.70215L7.89295 5.6084C8.21311 5.37606 8.42652 5.04355 8.516 4.67578C8.63398 4.19092 8.99533 3.56141 9.72987 3.37793L10.0043 3.31445C10.648 3.17425 11.3161 3.09962 12.0004 3.09961L12.2924 3.10449ZM12.0004 4.90039C11.4019 4.9004 10.8208 4.97137 10.264 5.10254C10.0641 5.92289 9.56361 6.67319 8.80506 7.16602L8.64979 7.26074C7.87426 7.70849 6.99594 7.81698 6.18885 7.63672C5.65253 8.28418 5.22333 9.02206 4.92615 9.82422C4.92791 9.82588 4.92913 9.82846 4.93104 9.83008C5.67014 10.4578 6.14284 11.3969 6.14295 12.4463L6.13709 12.6416C6.0825 13.6119 5.62396 14.4741 4.93104 15.0625C4.92949 15.0638 4.92615 15.0664 4.92615 15.0664C5.22314 15.8687 5.65255 16.6062 6.18885 17.2539C6.99653 17.0743 7.87447 17.1857 8.64881 17.6328L8.80408 17.7275C9.56191 18.2198 10.0635 18.9688 10.264 19.7891C10.8213 19.9206 11.4021 19.9932 12.0004 19.9932L12.4711 19.9795C12.9032 19.9528 13.3248 19.8864 13.7338 19.79C13.9478 18.9143 14.5062 18.1206 15.351 17.6328L15.4974 17.5527C16.235 17.1729 17.0535 17.0865 17.8099 17.2549C18.3473 16.6067 18.7772 15.8689 19.0746 15.0664L19.0707 15.0625C18.331 14.435 17.8578 13.4963 17.8578 12.4463L17.8637 12.251C17.9183 11.2804 18.3771 10.4185 19.0707 9.83008L19.0746 9.8252C18.7771 9.02277 18.3473 8.28475 17.8099 7.63672C17.0538 7.80535 16.2354 7.72068 15.4974 7.34082L15.351 7.26074C14.5059 6.77277 13.9477 5.97839 13.7338 5.10254C13.325 5.00647 12.9034 4.94064 12.4711 4.91406L12.0004 4.90039Z" fill="#F7F7F8"/>
</svg>
