<svg width="24" height="24" viewBox="0 0 24 24" fill="none" xmlns="http://www.w3.org/2000/svg">
<path d="M12.0019 1.7998C13.5075 1.79994 14.2456 2.91584 14.6552 3.63965C15.1342 4.4861 15.6475 5.48159 16.0371 6.25684C16.1795 6.54028 16.3053 6.79683 16.4091 7.00781L19.7714 7.37402C19.7811 7.37508 19.791 7.37664 19.8007 7.37793C20.6716 7.49426 21.951 7.84814 22.4843 9.15918C23.0163 10.4669 22.5023 11.7093 21.6982 12.5059C21.6757 12.5281 21.652 12.5499 21.6279 12.5703L19.2021 14.6172L20.1904 17.9893C20.4993 18.9941 20.5035 20.4224 19.4072 21.415C18.3828 22.3422 16.9309 22.3981 15.8476 21.8379V21.8389L12.0185 19.9541L8.14838 21.8408L8.1474 21.8398C7.06457 22.3974 5.6156 22.341 4.59272 21.415C3.49638 20.4224 3.50062 18.9941 3.80951 17.9893L4.79682 14.6172L2.37299 12.5703C2.3496 12.5506 2.32644 12.5303 2.30463 12.5088C1.49472 11.7108 0.984281 10.4653 1.51557 9.15918C2.04885 7.84825 3.32834 7.4943 4.19916 7.37793L4.22846 7.37402L7.59369 7.00781C7.69752 6.79679 7.82426 6.54037 7.96674 6.25684C8.35631 5.48162 8.86963 4.48602 9.34858 3.63965C9.75821 2.91584 10.4962 1.7998 12.0019 1.7998ZM12.0019 4.2002C11.9465 4.2002 11.9207 4.20877 11.9101 4.21289C11.8981 4.21756 11.8743 4.22841 11.8359 4.26172C11.7417 4.34338 11.618 4.50312 11.4374 4.82227L9.44819 8.67969C9.26362 9.03746 8.91185 9.27864 8.51166 9.32227L4.51655 9.75586C4.20012 9.79817 3.99781 9.86403 3.8769 9.92969C3.78001 9.98232 3.75531 10.0215 3.73822 10.0635C3.69175 10.1778 3.69002 10.277 3.71869 10.3799C3.74932 10.4897 3.82549 10.6298 3.97065 10.7783L6.94233 13.2871C7.30534 13.5936 7.45282 14.0861 7.31928 14.542L6.10737 18.6797C6.10588 18.6848 6.10501 18.6903 6.10346 18.6953C5.94241 19.2194 6.06702 19.5125 6.20307 19.6357C6.39824 19.8125 6.75325 19.8659 7.05854 19.7031L7.0976 19.6836L11.496 17.54L11.623 17.4873C11.9253 17.3809 12.2597 17.399 12.5507 17.542L16.9072 19.6855L16.9413 19.7031C17.2466 19.8659 17.6016 19.8124 17.7968 19.6357C17.9329 19.5125 18.0584 19.2194 17.8974 18.6953C17.8958 18.6902 17.894 18.6848 17.8925 18.6797L16.6806 14.542C16.5471 14.0861 16.6946 13.5936 17.0576 13.2871L20.0283 10.7783C20.1735 10.6287 20.2504 10.4888 20.2812 10.3789C20.31 10.2759 20.3079 10.1772 20.2617 10.0635C20.2446 10.0215 20.2205 9.9822 20.124 9.92969C20.003 9.864 19.7999 9.79916 19.4833 9.75684V9.75586L15.4921 9.32227C15.1311 9.28299 14.81 9.0833 14.6152 8.7832L14.54 8.64844L14.539 8.64746C14.5386 8.64652 14.538 8.64459 14.5371 8.64258C14.5352 8.63863 14.532 8.63283 14.5283 8.625C14.5204 8.60869 14.5085 8.58354 14.4931 8.55176C14.4624 8.4882 14.4174 8.39515 14.3603 8.27832C14.2459 8.04423 14.0834 7.71489 13.8925 7.33496C13.5088 6.57137 13.0162 5.61725 12.5663 4.82227C12.3858 4.50313 12.2611 4.34339 12.1669 4.26172C12.1291 4.229 12.1058 4.21766 12.0937 4.21289C12.0831 4.20877 12.0571 4.20022 12.0019 4.2002Z" fill="#121212"/>
</svg>
