<svg width="24" height="24" viewBox="0 0 24 24" fill="none" xmlns="http://www.w3.org/2000/svg">
<path d="M12 1C18.0751 1 23 5.92487 23 12C23 18.0751 18.0751 23 12 23C5.92487 23 1 18.0751 1 12C1 5.92487 5.92487 1 12 1ZM12 15.251C11.3373 15.251 10.7998 15.7884 10.7998 16.4512C10.8001 17.1137 11.3374 17.6504 12 17.6504C12.6626 17.6504 13.1999 17.1137 13.2002 16.4512C13.2002 15.7884 12.6627 15.251 12 15.251ZM12 6.30078C11.3649 6.30078 10.8496 6.81604 10.8496 7.45117V12.8516C10.85 13.4864 11.3651 14.001 12 14.001C12.6349 14.001 13.15 13.4864 13.1504 12.8516V7.45117C13.1504 6.81604 12.6351 6.30078 12 6.30078Z" fill="#0F0F0F"/>
</svg>
