<svg width="24" height="24" viewBox="0 0 24 24" fill="none" xmlns="http://www.w3.org/2000/svg">
<path d="M12.0019 1.7998C13.5074 1.80005 14.2456 2.91588 14.6552 3.63965C15.1342 4.48608 15.6475 5.48163 16.0371 6.25685C16.1795 6.54026 16.3054 6.79687 16.4092 7.00782L19.7715 7.37404C19.7811 7.37509 19.7911 7.37666 19.8008 7.37794C20.6716 7.49431 21.9511 7.84827 22.4844 9.1592C23.0163 10.4669 22.5023 11.7093 21.6982 12.5059C21.6758 12.5281 21.652 12.55 21.6279 12.5703L19.2021 14.6172L20.1904 17.9893C20.4993 18.9941 20.5034 20.4224 19.4072 21.4151C18.3829 22.3422 16.9309 22.398 15.8476 21.8379V21.8389L12.0185 19.9541L8.14839 21.8409L8.14742 21.8399C7.06463 22.3974 5.6156 22.3409 4.59272 21.4151C3.49638 20.4224 3.50062 18.9941 3.80952 17.9893L4.79682 14.6172L2.37299 12.5703C2.34964 12.5506 2.32641 12.5302 2.30463 12.5088C1.49472 11.7108 0.98428 10.4653 1.51557 9.1592C2.04887 7.84833 3.32836 7.49431 4.19917 7.37794L4.22846 7.37404L7.59371 7.00782C7.69752 6.79682 7.82429 6.54034 7.96675 6.25685C8.35632 5.48164 8.86966 4.486 9.34859 3.63965C9.75824 2.91584 10.4963 1.7998 12.0019 1.7998Z" fill="#121212"/>
</svg>
