<svg width="24" height="24" viewBox="0 0 24 24" fill="none" xmlns="http://www.w3.org/2000/svg">
<path d="M20.5996 8.96673C20.5996 7.0504 18.9925 5.40036 16.8838 5.40036C15.6563 5.40043 14.573 5.97847 13.9062 6.84957C13.4521 7.44293 12.7472 7.79096 12 7.79096C11.2528 7.79096 10.5479 7.44293 10.0938 6.84957C9.42554 5.97658 8.35235 5.40043 7.11621 5.40036C5.00754 5.40036 3.40042 7.0504 3.40039 8.96673C3.40039 11.8785 4.77677 14.2708 6.65527 16.1385C8.52264 17.9951 10.7254 19.1603 11.9971 19.5984L12 19.5994L12.002 19.5984C13.2735 19.1606 15.4769 17.9955 17.3447 16.1385C19.2232 14.2708 20.5996 11.8785 20.5996 8.96673ZM23 8.96673C23 16.4386 15.8716 20.8474 12.6816 21.9041C12.3077 22.032 11.6923 22.032 11.3184 21.9041C8.12836 20.8474 1 16.4386 1 8.96673C1.00003 5.66848 3.73923 3 7.11621 3L7.48828 3.01074C9.33652 3.11917 10.9584 4.02972 12 5.3906C13.111 3.93912 14.893 3.00007 16.8838 3C20.2608 3 23 5.66848 23 8.96673Z" fill="#121212"/>
</svg>
