<svg width="24" height="24" viewBox="0 0 24 24" fill="none" xmlns="http://www.w3.org/2000/svg">
<path d="M19.7591 2.3844C20.2718 1.87182 21.1027 1.87191 21.6155 2.3844C22.1282 2.89716 22.1281 3.72803 21.6155 4.24083L13.8554 12L21.6155 19.7591C22.1279 20.2719 22.128 21.1028 21.6155 21.6156C21.1027 22.1282 20.2709 22.1281 19.7581 21.6156L11.999 13.8564L4.24193 21.6146C3.72912 22.1274 2.89732 22.1274 2.38453 21.6146C1.87219 21.1018 1.87196 20.2708 2.38453 19.7581L10.1426 12L2.38453 4.24182C1.87178 3.72906 1.87187 2.8982 2.38453 2.38538C2.89732 1.87259 3.72814 1.87259 4.24094 2.38538L11.999 10.1435L19.7591 2.3844Z" fill="#0F0F0F"/>
</svg>
